<?xml version="1.0" encoding="UTF-8" standalone="no"?>
<!DOCTYPE svg PUBLIC "-//W3C//DTD SVG 1.1//EN"
 "http://www.w3.org/Graphics/SVG/1.1/DTD/svg11.dtd">
<!-- Generated by graphviz version 2.38.0 (20140413.2041)
 -->
<!-- Title: snakemake_dag Pages: 1 -->
<svg width="2435pt" height="188pt"
 viewBox="0.00 0.00 2435.00 188.00" xmlns="http://www.w3.org/2000/svg" xmlns:xlink="http://www.w3.org/1999/xlink">
<g id="graph0" class="graph" transform="scale(1 1) rotate(0) translate(4 184)">
<title>snakemake_dag</title>
<polygon fill="white" stroke="none" points="-4,4 -4,-184 2431,-184 2431,4 -4,4"/>
<!-- 0 -->
<g id="node1" class="node"><title>0</title>
<path fill="none" stroke="#d6d856" stroke-width="2" stroke-dasharray="5,2" d="M158.5,-108C158.5,-108 54.5,-108 54.5,-108 48.5,-108 42.5,-102 42.5,-96 42.5,-96 42.5,-84 42.5,-84 42.5,-78 48.5,-72 54.5,-72 54.5,-72 158.5,-72 158.5,-72 164.5,-72 170.5,-78 170.5,-84 170.5,-84 170.5,-96 170.5,-96 170.5,-102 164.5,-108 158.5,-108"/>
<text text-anchor="middle" x="106.5" y="-93" font-family="sans" font-size="10.00">fastqc</text>
<text text-anchor="middle" x="106.5" y="-82" font-family="sans" font-size="10.00">sample: WT_pCpL_rep1</text>
</g>
<!-- 18 -->
<g id="node19" class="node"><title>18</title>
<path fill="none" stroke="#d85656" stroke-width="2" stroke-dasharray="5,2" d="M994.5,-36C994.5,-36 964.5,-36 964.5,-36 958.5,-36 952.5,-30 952.5,-24 952.5,-24 952.5,-12 952.5,-12 952.5,-6 958.5,-0 964.5,-0 964.5,-0 994.5,-0 994.5,-0 1000.5,-0 1006.5,-6 1006.5,-12 1006.5,-12 1006.5,-24 1006.5,-24 1006.5,-30 1000.5,-36 994.5,-36"/>
<text text-anchor="middle" x="979.5" y="-15.5" font-family="sans" font-size="10.00">final</text>
</g>
<!-- 0&#45;&gt;18 -->
<g id="edge6" class="edge"><title>0&#45;&gt;18</title>
<path fill="none" stroke="grey" stroke-width="2" d="M170.877,-73.4095C173.784,-72.8946 176.668,-72.4207 179.5,-72 470.935,-28.706 827.364,-20.7722 942.062,-19.3227"/>
<polygon fill="grey" stroke="grey" stroke-width="2" points="942.438,-22.8186 952.396,-19.2017 942.356,-15.8191 942.438,-22.8186"/>
</g>
<!-- 1 -->
<g id="node2" class="node"><title>1</title>
<path fill="none" stroke="#59d856" stroke-width="2" stroke-dasharray="5,2" d="M167,-180C167,-180 12,-180 12,-180 6,-180 0,-174 0,-168 0,-168 0,-156 0,-156 0,-150 6,-144 12,-144 12,-144 167,-144 167,-144 173,-144 179,-150 179,-156 179,-156 179,-168 179,-168 179,-174 173,-180 167,-180"/>
<text text-anchor="middle" x="89.5" y="-165" font-family="sans" font-size="10.00">trim</text>
<text text-anchor="middle" x="89.5" y="-154" font-family="sans" font-size="10.00">sample: WT_pCpL_inputDNA_rep2</text>
</g>
<!-- 17 -->
<g id="node18" class="node"><title>17</title>
<path fill="none" stroke="#56d8d8" stroke-width="2" stroke-dasharray="5,2" d="M242,-108C242,-108 201,-108 201,-108 195,-108 189,-102 189,-96 189,-96 189,-84 189,-84 189,-78 195,-72 201,-72 201,-72 242,-72 242,-72 248,-72 254,-78 254,-84 254,-84 254,-96 254,-96 254,-102 248,-108 242,-108"/>
<text text-anchor="middle" x="221.5" y="-87.5" font-family="sans" font-size="10.00">alignment</text>
</g>
<!-- 1&#45;&gt;17 -->
<g id="edge5" class="edge"><title>1&#45;&gt;17</title>
<path fill="none" stroke="grey" stroke-width="2" d="M121.791,-143.876C139.369,-134.554 161.309,-122.919 180.129,-112.939"/>
<polygon fill="grey" stroke="grey" stroke-width="2" points="181.89,-115.967 189.085,-108.19 178.611,-109.783 181.89,-115.967"/>
</g>
<!-- 1&#45;&gt;18 -->
<g id="edge7" class="edge"><title>1&#45;&gt;18</title>
<path fill="none" stroke="grey" stroke-width="2" d="M167.846,-143.921C198.438,-135.502 233.144,-123.715 262.5,-108 284.776,-96.0752 283.056,-81.4227 306.5,-72 423.395,-25.0178 818.579,-19.5678 942.21,-19.0275"/>
<polygon fill="grey" stroke="grey" stroke-width="2" points="942.327,-22.5272 952.315,-18.9918 942.302,-15.5272 942.327,-22.5272"/>
</g>
<!-- 2 -->
<g id="node3" class="node"><title>2</title>
<path fill="none" stroke="#59d856" stroke-width="2" stroke-dasharray="5,2" d="M371.5,-180C371.5,-180 209.5,-180 209.5,-180 203.5,-180 197.5,-174 197.5,-168 197.5,-168 197.5,-156 197.5,-156 197.5,-150 203.5,-144 209.5,-144 209.5,-144 371.5,-144 371.5,-144 377.5,-144 383.5,-150 383.5,-156 383.5,-156 383.5,-168 383.5,-168 383.5,-174 377.5,-180 371.5,-180"/>
<text text-anchor="middle" x="290.5" y="-165" font-family="sans" font-size="10.00">trim</text>
<text text-anchor="middle" x="290.5" y="-154" font-family="sans" font-size="10.00">sample: WT_mCmL_inputDNA_rep1</text>
</g>
<!-- 2&#45;&gt;18 -->
<g id="edge8" class="edge"><title>2&#45;&gt;18</title>
<path fill="none" stroke="grey" stroke-width="2" d="M294.642,-143.871C300.674,-123.005 314.042,-88.5008 339.5,-72 390.119,-39.1915 812.536,-23.977 941.958,-20.0564"/>
<polygon fill="grey" stroke="grey" stroke-width="2" points="942.272,-23.5487 952.163,-19.7524 942.064,-16.5518 942.272,-23.5487"/>
</g>
<!-- 22 -->
<g id="node23" class="node"><title>22</title>
<path fill="none" stroke="#56d8d8" stroke-width="2" stroke-dasharray="5,2" d="M402,-108C402,-108 361,-108 361,-108 355,-108 349,-102 349,-96 349,-96 349,-84 349,-84 349,-78 355,-72 361,-72 361,-72 402,-72 402,-72 408,-72 414,-78 414,-84 414,-84 414,-96 414,-96 414,-102 408,-108 402,-108"/>
<text text-anchor="middle" x="381.5" y="-87.5" font-family="sans" font-size="10.00">alignment</text>
</g>
<!-- 2&#45;&gt;22 -->
<g id="edge32" class="edge"><title>2&#45;&gt;22</title>
<path fill="none" stroke="grey" stroke-width="2" d="M312.994,-143.697C324.455,-134.881 338.558,-124.032 350.984,-114.474"/>
<polygon fill="grey" stroke="grey" stroke-width="2" points="353.472,-116.976 359.264,-108.104 349.204,-111.427 353.472,-116.976"/>
</g>
<!-- 3 -->
<g id="node4" class="node"><title>3</title>
<path fill="none" stroke="#56d8d8" stroke-width="2" stroke-dasharray="5,2" d="M485,-108C485,-108 444,-108 444,-108 438,-108 432,-102 432,-96 432,-96 432,-84 432,-84 432,-78 438,-72 444,-72 444,-72 485,-72 485,-72 491,-72 497,-78 497,-84 497,-84 497,-96 497,-96 497,-102 491,-108 485,-108"/>
<text text-anchor="middle" x="464.5" y="-87.5" font-family="sans" font-size="10.00">alignment</text>
</g>
<!-- 3&#45;&gt;18 -->
<g id="edge9" class="edge"><title>3&#45;&gt;18</title>
<path fill="none" stroke="grey" stroke-width="2" d="M497.074,-76.1122C501.858,-74.5438 506.769,-73.1074 511.5,-72 669.036,-35.1281 862.63,-23.5918 942.431,-20.2538"/>
<polygon fill="grey" stroke="grey" stroke-width="2" points="942.626,-23.7489 952.478,-19.8522 942.346,-16.7545 942.626,-23.7489"/>
</g>
<!-- 4 -->
<g id="node5" class="node"><title>4</title>
<path fill="none" stroke="#56d8d8" stroke-width="2" stroke-dasharray="5,2" d="M607,-108C607,-108 566,-108 566,-108 560,-108 554,-102 554,-96 554,-96 554,-84 554,-84 554,-78 560,-72 566,-72 566,-72 607,-72 607,-72 613,-72 619,-78 619,-84 619,-84 619,-96 619,-96 619,-102 613,-108 607,-108"/>
<text text-anchor="middle" x="586.5" y="-87.5" font-family="sans" font-size="10.00">alignment</text>
</g>
<!-- 4&#45;&gt;18 -->
<g id="edge10" class="edge"><title>4&#45;&gt;18</title>
<path fill="none" stroke="grey" stroke-width="2" d="M619.115,-76.2817C623.894,-74.6884 628.791,-73.2 633.5,-72 743.949,-43.853 878.282,-28.5006 942.215,-22.3036"/>
<polygon fill="grey" stroke="grey" stroke-width="2" points="942.597,-25.7831 952.222,-21.3531 941.936,-18.8145 942.597,-25.7831"/>
</g>
<!-- 5 -->
<g id="node6" class="node"><title>5</title>
<path fill="none" stroke="#56d8d8" stroke-width="2" stroke-dasharray="5,2" d="M729,-108C729,-108 688,-108 688,-108 682,-108 676,-102 676,-96 676,-96 676,-84 676,-84 676,-78 682,-72 688,-72 688,-72 729,-72 729,-72 735,-72 741,-78 741,-84 741,-84 741,-96 741,-96 741,-102 735,-108 729,-108"/>
<text text-anchor="middle" x="708.5" y="-87.5" font-family="sans" font-size="10.00">alignment</text>
</g>
<!-- 5&#45;&gt;18 -->
<g id="edge11" class="edge"><title>5&#45;&gt;18</title>
<path fill="none" stroke="grey" stroke-width="2" d="M741.21,-76.6262C745.975,-74.9824 750.843,-73.3881 755.5,-72 820.52,-52.6187 897.818,-35.634 942.512,-26.3913"/>
<polygon fill="grey" stroke="grey" stroke-width="2" points="943.249,-29.8131 952.341,-24.3749 941.842,-22.9559 943.249,-29.8131"/>
</g>
<!-- 6 -->
<g id="node7" class="node"><title>6</title>
<path fill="none" stroke="#d6d856" stroke-width="2" stroke-dasharray="5,2" d="M971.5,-108C971.5,-108 809.5,-108 809.5,-108 803.5,-108 797.5,-102 797.5,-96 797.5,-96 797.5,-84 797.5,-84 797.5,-78 803.5,-72 809.5,-72 809.5,-72 971.5,-72 971.5,-72 977.5,-72 983.5,-78 983.5,-84 983.5,-84 983.5,-96 983.5,-96 983.5,-102 977.5,-108 971.5,-108"/>
<text text-anchor="middle" x="890.5" y="-93" font-family="sans" font-size="10.00">fastqc</text>
<text text-anchor="middle" x="890.5" y="-82" font-family="sans" font-size="10.00">sample: WT_mCmL_inputDNA_rep1</text>
</g>
<!-- 6&#45;&gt;18 -->
<g id="edge13" class="edge"><title>6&#45;&gt;18</title>
<path fill="none" stroke="grey" stroke-width="2" d="M912.5,-71.6966C923.709,-62.8807 937.502,-52.0321 949.654,-42.4742"/>
<polygon fill="grey" stroke="grey" stroke-width="2" points="952.057,-45.0375 957.753,-36.1043 947.729,-39.5354 952.057,-45.0375"/>
</g>
<!-- 7 -->
<g id="node8" class="node"><title>7</title>
<path fill="none" stroke="#d6d856" stroke-width="2" stroke-dasharray="5,2" d="M1125,-108C1125,-108 1014,-108 1014,-108 1008,-108 1002,-102 1002,-96 1002,-96 1002,-84 1002,-84 1002,-78 1008,-72 1014,-72 1014,-72 1125,-72 1125,-72 1131,-72 1137,-78 1137,-84 1137,-84 1137,-96 1137,-96 1137,-102 1131,-108 1125,-108"/>
<text text-anchor="middle" x="1069.5" y="-93" font-family="sans" font-size="10.00">fastqc</text>
<text text-anchor="middle" x="1069.5" y="-82" font-family="sans" font-size="10.00">sample: WT_mCmL_rep2</text>
</g>
<!-- 7&#45;&gt;18 -->
<g id="edge23" class="edge"><title>7&#45;&gt;18</title>
<path fill="none" stroke="grey" stroke-width="2" d="M1047.25,-71.6966C1035.92,-62.8807 1021.97,-52.0321 1009.68,-42.4742"/>
<polygon fill="grey" stroke="grey" stroke-width="2" points="1011.53,-39.481 1001.49,-36.1043 1007.24,-45.0065 1011.53,-39.481"/>
</g>
<!-- 8 -->
<g id="node9" class="node"><title>8</title>
<path fill="none" stroke="#56d8d8" stroke-width="2" stroke-dasharray="5,2" d="M1208,-108C1208,-108 1167,-108 1167,-108 1161,-108 1155,-102 1155,-96 1155,-96 1155,-84 1155,-84 1155,-78 1161,-72 1167,-72 1167,-72 1208,-72 1208,-72 1214,-72 1220,-78 1220,-84 1220,-84 1220,-96 1220,-96 1220,-102 1214,-108 1208,-108"/>
<text text-anchor="middle" x="1187.5" y="-87.5" font-family="sans" font-size="10.00">alignment</text>
</g>
<!-- 8&#45;&gt;18 -->
<g id="edge14" class="edge"><title>8&#45;&gt;18</title>
<path fill="none" stroke="grey" stroke-width="2" d="M1154.58,-75.3997C1151.52,-74.2199 1148.46,-73.0696 1145.5,-72 1101.67,-56.1572 1050.47,-40.188 1016.65,-29.9822"/>
<polygon fill="grey" stroke="grey" stroke-width="2" points="1017.32,-26.53 1006.74,-27.0065 1015.31,-33.2344 1017.32,-26.53"/>
</g>
<!-- 9 -->
<g id="node10" class="node"><title>9</title>
<path fill="none" stroke="#d6d856" stroke-width="2" stroke-dasharray="5,2" d="M1392.5,-108C1392.5,-108 1288.5,-108 1288.5,-108 1282.5,-108 1276.5,-102 1276.5,-96 1276.5,-96 1276.5,-84 1276.5,-84 1276.5,-78 1282.5,-72 1288.5,-72 1288.5,-72 1392.5,-72 1392.5,-72 1398.5,-72 1404.5,-78 1404.5,-84 1404.5,-84 1404.5,-96 1404.5,-96 1404.5,-102 1398.5,-108 1392.5,-108"/>
<text text-anchor="middle" x="1340.5" y="-93" font-family="sans" font-size="10.00">fastqc</text>
<text text-anchor="middle" x="1340.5" y="-82" font-family="sans" font-size="10.00">sample: WT_pCpL_rep2</text>
</g>
<!-- 9&#45;&gt;18 -->
<g id="edge17" class="edge"><title>9&#45;&gt;18</title>
<path fill="none" stroke="grey" stroke-width="2" d="M1276.26,-74.8417C1271.61,-73.8645 1266.98,-72.908 1262.5,-72 1174.78,-54.2298 1071.31,-35.3886 1017.05,-25.6687"/>
<polygon fill="grey" stroke="grey" stroke-width="2" points="1017.33,-22.1638 1006.87,-23.8494 1016.1,-29.0545 1017.33,-22.1638"/>
</g>
<!-- 10 -->
<g id="node11" class="node"><title>10</title>
<path fill="none" stroke="#59d856" stroke-width="2" stroke-dasharray="5,2" d="M926,-180C926,-180 815,-180 815,-180 809,-180 803,-174 803,-168 803,-168 803,-156 803,-156 803,-150 809,-144 815,-144 815,-144 926,-144 926,-144 932,-144 938,-150 938,-156 938,-156 938,-168 938,-168 938,-174 932,-180 926,-180"/>
<text text-anchor="middle" x="870.5" y="-165" font-family="sans" font-size="10.00">trim</text>
<text text-anchor="middle" x="870.5" y="-154" font-family="sans" font-size="10.00">sample: WT_mCmL_rep1</text>
</g>
<!-- 10&#45;&gt;5 -->
<g id="edge3" class="edge"><title>10&#45;&gt;5</title>
<path fill="none" stroke="grey" stroke-width="2" d="M830.87,-143.876C806.558,-133.371 775.449,-119.929 750.681,-109.226"/>
<polygon fill="grey" stroke="grey" stroke-width="2" points="751.752,-105.876 741.184,-105.123 748.975,-112.302 751.752,-105.876"/>
</g>
<!-- 10&#45;&gt;18 -->
<g id="edge16" class="edge"><title>10&#45;&gt;18</title>
<path fill="none" stroke="grey" stroke-width="2" d="M827.882,-143.989C812.626,-135.58 797.091,-123.781 788.5,-108 780.85,-93.9472 778.816,-84.7368 788.5,-72 807.021,-47.6398 891.993,-31.5468 942.146,-23.9914"/>
<polygon fill="grey" stroke="grey" stroke-width="2" points="942.895,-27.4192 952.284,-22.5089 941.882,-20.4929 942.895,-27.4192"/>
</g>
<!-- 11 -->
<g id="node12" class="node"><title>11</title>
<path fill="none" stroke="#59d856" stroke-width="2" stroke-dasharray="5,2" d="M1269.5,-180C1269.5,-180 1165.5,-180 1165.5,-180 1159.5,-180 1153.5,-174 1153.5,-168 1153.5,-168 1153.5,-156 1153.5,-156 1153.5,-150 1159.5,-144 1165.5,-144 1165.5,-144 1269.5,-144 1269.5,-144 1275.5,-144 1281.5,-150 1281.5,-156 1281.5,-156 1281.5,-168 1281.5,-168 1281.5,-174 1275.5,-180 1269.5,-180"/>
<text text-anchor="middle" x="1217.5" y="-165" font-family="sans" font-size="10.00">trim</text>
<text text-anchor="middle" x="1217.5" y="-154" font-family="sans" font-size="10.00">sample: WT_pCpL_rep1</text>
</g>
<!-- 11&#45;&gt;8 -->
<g id="edge4" class="edge"><title>11&#45;&gt;8</title>
<path fill="none" stroke="grey" stroke-width="2" d="M1210.08,-143.697C1206.71,-135.813 1202.63,-126.304 1198.88,-117.546"/>
<polygon fill="grey" stroke="grey" stroke-width="2" points="1201.99,-115.917 1194.83,-108.104 1195.55,-118.675 1201.99,-115.917"/>
</g>
<!-- 11&#45;&gt;18 -->
<g id="edge18" class="edge"><title>11&#45;&gt;18</title>
<path fill="none" stroke="grey" stroke-width="2" d="M1226.34,-143.887C1235.08,-124.305 1244.96,-92.3292 1228.5,-72 1202.34,-39.6891 1080.17,-26.2455 1017.22,-21.3878"/>
<polygon fill="grey" stroke="grey" stroke-width="2" points="1017.15,-17.8732 1006.92,-20.629 1016.64,-24.8543 1017.15,-17.8732"/>
</g>
<!-- 12 -->
<g id="node13" class="node"><title>12</title>
<path fill="none" stroke="#d6d856" stroke-width="2" stroke-dasharray="5,2" d="M1590,-108C1590,-108 1435,-108 1435,-108 1429,-108 1423,-102 1423,-96 1423,-96 1423,-84 1423,-84 1423,-78 1429,-72 1435,-72 1435,-72 1590,-72 1590,-72 1596,-72 1602,-78 1602,-84 1602,-84 1602,-96 1602,-96 1602,-102 1596,-108 1590,-108"/>
<text text-anchor="middle" x="1512.5" y="-93" font-family="sans" font-size="10.00">fastqc</text>
<text text-anchor="middle" x="1512.5" y="-82" font-family="sans" font-size="10.00">sample: WT_pCpL_inputDNA_rep1</text>
</g>
<!-- 12&#45;&gt;18 -->
<g id="edge19" class="edge"><title>12&#45;&gt;18</title>
<path fill="none" stroke="grey" stroke-width="2" d="M1422.95,-73.4227C1419.76,-72.9319 1416.61,-72.456 1413.5,-72 1267.17,-50.5151 1092.19,-31.0338 1016.93,-22.9513"/>
<polygon fill="grey" stroke="grey" stroke-width="2" points="1017.3,-19.4711 1006.98,-21.8875 1016.55,-26.4314 1017.3,-19.4711"/>
</g>
<!-- 13 -->
<g id="node14" class="node"><title>13</title>
<path fill="none" stroke="#d6d856" stroke-width="2" stroke-dasharray="5,2" d="M1794.5,-108C1794.5,-108 1632.5,-108 1632.5,-108 1626.5,-108 1620.5,-102 1620.5,-96 1620.5,-96 1620.5,-84 1620.5,-84 1620.5,-78 1626.5,-72 1632.5,-72 1632.5,-72 1794.5,-72 1794.5,-72 1800.5,-72 1806.5,-78 1806.5,-84 1806.5,-84 1806.5,-96 1806.5,-96 1806.5,-102 1800.5,-108 1794.5,-108"/>
<text text-anchor="middle" x="1713.5" y="-93" font-family="sans" font-size="10.00">fastqc</text>
<text text-anchor="middle" x="1713.5" y="-82" font-family="sans" font-size="10.00">sample: WT_mCmL_inputDNA_rep2</text>
</g>
<!-- 13&#45;&gt;18 -->
<g id="edge20" class="edge"><title>13&#45;&gt;18</title>
<path fill="none" stroke="grey" stroke-width="2" d="M1620.35,-73.2839C1617.03,-72.8324 1613.74,-72.4025 1610.5,-72 1386,-44.09 1114.69,-26.8037 1016.9,-21.096"/>
<polygon fill="grey" stroke="grey" stroke-width="2" points="1016.83,-17.5862 1006.64,-20.503 1016.42,-24.5746 1016.83,-17.5862"/>
</g>
<!-- 14 -->
<g id="node15" class="node"><title>14</title>
<path fill="none" stroke="#d6d856" stroke-width="2" stroke-dasharray="5,2" d="M1948,-108C1948,-108 1837,-108 1837,-108 1831,-108 1825,-102 1825,-96 1825,-96 1825,-84 1825,-84 1825,-78 1831,-72 1837,-72 1837,-72 1948,-72 1948,-72 1954,-72 1960,-78 1960,-84 1960,-84 1960,-96 1960,-96 1960,-102 1954,-108 1948,-108"/>
<text text-anchor="middle" x="1892.5" y="-93" font-family="sans" font-size="10.00">fastqc</text>
<text text-anchor="middle" x="1892.5" y="-82" font-family="sans" font-size="10.00">sample: WT_mCmL_rep1</text>
</g>
<!-- 14&#45;&gt;18 -->
<g id="edge21" class="edge"><title>14&#45;&gt;18</title>
<path fill="none" stroke="grey" stroke-width="2" d="M1824.58,-73.4108C1821.52,-72.8955 1818.48,-72.4212 1815.5,-72 1509.34,-28.7601 1135.08,-20.7859 1017.02,-19.325"/>
<polygon fill="grey" stroke="grey" stroke-width="2" points="1016.76,-15.8219 1006.72,-19.2064 1016.68,-22.8214 1016.76,-15.8219"/>
</g>
<!-- 15 -->
<g id="node16" class="node"><title>15</title>
<path fill="none" stroke="#d6d856" stroke-width="2" stroke-dasharray="5,2" d="M2145,-108C2145,-108 1990,-108 1990,-108 1984,-108 1978,-102 1978,-96 1978,-96 1978,-84 1978,-84 1978,-78 1984,-72 1990,-72 1990,-72 2145,-72 2145,-72 2151,-72 2157,-78 2157,-84 2157,-84 2157,-96 2157,-96 2157,-102 2151,-108 2145,-108"/>
<text text-anchor="middle" x="2067.5" y="-93" font-family="sans" font-size="10.00">fastqc</text>
<text text-anchor="middle" x="2067.5" y="-82" font-family="sans" font-size="10.00">sample: WT_pCpL_inputDNA_rep2</text>
</g>
<!-- 15&#45;&gt;18 -->
<g id="edge22" class="edge"><title>15&#45;&gt;18</title>
<path fill="none" stroke="grey" stroke-width="2" d="M1977.99,-73.1484C1974.79,-72.7352 1971.62,-72.3502 1968.5,-72 1599.12,-30.5305 1148.36,-21.3049 1017.04,-19.4381"/>
<polygon fill="grey" stroke="grey" stroke-width="2" points="1016.78,-15.9343 1006.73,-19.2976 1016.69,-22.9337 1016.78,-15.9343"/>
</g>
<!-- 16 -->
<g id="node17" class="node"><title>16</title>
<path fill="none" stroke="#59d856" stroke-width="2" stroke-dasharray="5,2" d="M2245.5,-180C2245.5,-180 2141.5,-180 2141.5,-180 2135.5,-180 2129.5,-174 2129.5,-168 2129.5,-168 2129.5,-156 2129.5,-156 2129.5,-150 2135.5,-144 2141.5,-144 2141.5,-144 2245.5,-144 2245.5,-144 2251.5,-144 2257.5,-150 2257.5,-156 2257.5,-156 2257.5,-168 2257.5,-168 2257.5,-174 2251.5,-180 2245.5,-180"/>
<text text-anchor="middle" x="2193.5" y="-165" font-family="sans" font-size="10.00">trim</text>
<text text-anchor="middle" x="2193.5" y="-154" font-family="sans" font-size="10.00">sample: WT_pCpL_rep2</text>
</g>
<!-- 16&#45;&gt;18 -->
<g id="edge15" class="edge"><title>16&#45;&gt;18</title>
<path fill="none" stroke="grey" stroke-width="2" d="M2193.55,-143.663C2192.58,-122.92 2187.46,-88.88 2165.5,-72 2118.89,-36.1745 1213.16,-22.1072 1016.83,-19.4725"/>
<polygon fill="grey" stroke="grey" stroke-width="2" points="1016.77,-15.9715 1006.72,-19.3387 1016.68,-22.9709 1016.77,-15.9715"/>
</g>
<!-- 19 -->
<g id="node20" class="node"><title>19</title>
<path fill="none" stroke="#56d8d8" stroke-width="2" stroke-dasharray="5,2" d="M2267,-108C2267,-108 2226,-108 2226,-108 2220,-108 2214,-102 2214,-96 2214,-96 2214,-84 2214,-84 2214,-78 2220,-72 2226,-72 2226,-72 2267,-72 2267,-72 2273,-72 2279,-78 2279,-84 2279,-84 2279,-96 2279,-96 2279,-102 2273,-108 2267,-108"/>
<text text-anchor="middle" x="2246.5" y="-87.5" font-family="sans" font-size="10.00">alignment</text>
</g>
<!-- 16&#45;&gt;19 -->
<g id="edge30" class="edge"><title>16&#45;&gt;19</title>
<path fill="none" stroke="grey" stroke-width="2" d="M2206.6,-143.697C2212.89,-135.389 2220.55,-125.277 2227.46,-116.141"/>
<polygon fill="grey" stroke="grey" stroke-width="2" points="2230.3,-118.19 2233.55,-108.104 2224.72,-113.964 2230.3,-118.19"/>
</g>
<!-- 17&#45;&gt;18 -->
<g id="edge29" class="edge"><title>17&#45;&gt;18</title>
<path fill="none" stroke="grey" stroke-width="2" d="M254.036,-75.9457C258.826,-74.4016 263.748,-73.0164 268.5,-72 399.182,-44.0458 815.251,-25.5421 942.3,-20.4344"/>
<polygon fill="grey" stroke="grey" stroke-width="2" points="942.464,-23.9307 952.317,-20.0354 942.185,-16.9362 942.464,-23.9307"/>
</g>
<!-- 19&#45;&gt;18 -->
<g id="edge24" class="edge"><title>19&#45;&gt;18</title>
<path fill="none" stroke="grey" stroke-width="2" d="M2213.99,-75.8106C2209.2,-74.2864 2204.27,-72.9427 2199.5,-72 1964.73,-25.5728 1195.22,-19.8133 1016.71,-19.1004"/>
<polygon fill="grey" stroke="grey" stroke-width="2" points="1016.54,-15.5998 1006.52,-19.0628 1016.51,-22.5998 1016.54,-15.5998"/>
</g>
<!-- 20 -->
<g id="node21" class="node"><title>20</title>
<path fill="none" stroke="#59d856" stroke-width="2" stroke-dasharray="5,2" d="M773,-180C773,-180 618,-180 618,-180 612,-180 606,-174 606,-168 606,-168 606,-156 606,-156 606,-150 612,-144 618,-144 618,-144 773,-144 773,-144 779,-144 785,-150 785,-156 785,-156 785,-168 785,-168 785,-174 779,-180 773,-180"/>
<text text-anchor="middle" x="695.5" y="-165" font-family="sans" font-size="10.00">trim</text>
<text text-anchor="middle" x="695.5" y="-154" font-family="sans" font-size="10.00">sample: WT_pCpL_inputDNA_rep1</text>
</g>
<!-- 20&#45;&gt;4 -->
<g id="edge2" class="edge"><title>20&#45;&gt;4</title>
<path fill="none" stroke="grey" stroke-width="2" d="M668.836,-143.876C654.716,-134.808 637.189,-123.552 621.939,-113.759"/>
<polygon fill="grey" stroke="grey" stroke-width="2" points="623.573,-110.648 613.267,-108.19 619.79,-116.538 623.573,-110.648"/>
</g>
<!-- 20&#45;&gt;18 -->
<g id="edge25" class="edge"><title>20&#45;&gt;18</title>
<path fill="none" stroke="grey" stroke-width="2" d="M681.071,-143.725C666.662,-124.288 648.985,-92.7304 666.5,-72 701.377,-30.7208 866.492,-21.5833 941.845,-19.5672"/>
<polygon fill="grey" stroke="grey" stroke-width="2" points="942.371,-23.0558 952.285,-19.3185 942.204,-16.0577 942.371,-23.0558"/>
</g>
<!-- 21 -->
<g id="node22" class="node"><title>21</title>
<path fill="none" stroke="#56d8d8" stroke-width="2" stroke-dasharray="5,2" d="M2389,-108C2389,-108 2348,-108 2348,-108 2342,-108 2336,-102 2336,-96 2336,-96 2336,-84 2336,-84 2336,-78 2342,-72 2348,-72 2348,-72 2389,-72 2389,-72 2395,-72 2401,-78 2401,-84 2401,-84 2401,-96 2401,-96 2401,-102 2395,-108 2389,-108"/>
<text text-anchor="middle" x="2368.5" y="-87.5" font-family="sans" font-size="10.00">alignment</text>
</g>
<!-- 21&#45;&gt;18 -->
<g id="edge26" class="edge"><title>21&#45;&gt;18</title>
<path fill="none" stroke="grey" stroke-width="2" d="M2335.99,-75.7934C2331.2,-74.2717 2326.27,-72.9333 2321.5,-72 2061.55,-21.1247 1205.94,-18.8074 1016.75,-18.9298"/>
<polygon fill="grey" stroke="grey" stroke-width="2" points="1016.74,-15.4297 1006.74,-18.939 1016.75,-22.4297 1016.74,-15.4297"/>
</g>
<!-- 22&#45;&gt;18 -->
<g id="edge27" class="edge"><title>22&#45;&gt;18</title>
<path fill="none" stroke="grey" stroke-width="2" d="M414.332,-74.3986C417.063,-73.4879 419.808,-72.6701 422.5,-72 613.817,-24.3772 851.888,-18.9532 942.32,-18.7498"/>
<polygon fill="grey" stroke="grey" stroke-width="2" points="942.356,-22.2499 952.355,-18.7479 942.354,-15.2499 942.356,-22.2499"/>
</g>
<!-- 23 -->
<g id="node24" class="node"><title>23</title>
<path fill="none" stroke="#59d856" stroke-width="2" stroke-dasharray="5,2" d="M2415,-180C2415,-180 2304,-180 2304,-180 2298,-180 2292,-174 2292,-168 2292,-168 2292,-156 2292,-156 2292,-150 2298,-144 2304,-144 2304,-144 2415,-144 2415,-144 2421,-144 2427,-150 2427,-156 2427,-156 2427,-168 2427,-168 2427,-174 2421,-180 2415,-180"/>
<text text-anchor="middle" x="2359.5" y="-165" font-family="sans" font-size="10.00">trim</text>
<text text-anchor="middle" x="2359.5" y="-154" font-family="sans" font-size="10.00">sample: WT_mCmL_rep2</text>
</g>
<!-- 23&#45;&gt;18 -->
<g id="edge28" class="edge"><title>23&#45;&gt;18</title>
<path fill="none" stroke="grey" stroke-width="2" d="M2348.19,-143.856C2332.26,-120.316 2303.39,-79.9851 2287.5,-72 2171.35,-13.6469 1218.15,-17.2625 1016.78,-18.6911"/>
<polygon fill="grey" stroke="grey" stroke-width="2" points="1016.67,-15.1916 1006.7,-18.7653 1016.72,-22.1914 1016.67,-15.1916"/>
</g>
<!-- 23&#45;&gt;21 -->
<g id="edge31" class="edge"><title>23&#45;&gt;21</title>
<path fill="none" stroke="grey" stroke-width="2" d="M2361.72,-143.697C2362.72,-135.983 2363.91,-126.712 2365.01,-118.112"/>
<polygon fill="grey" stroke="grey" stroke-width="2" points="2368.5,-118.469 2366.3,-108.104 2361.55,-117.576 2368.5,-118.469"/>
</g>
<!-- 24 -->
<g id="node25" class="node"><title>24</title>
<path fill="none" stroke="#59d856" stroke-width="2" stroke-dasharray="5,2" d="M575.5,-180C575.5,-180 413.5,-180 413.5,-180 407.5,-180 401.5,-174 401.5,-168 401.5,-168 401.5,-156 401.5,-156 401.5,-150 407.5,-144 413.5,-144 413.5,-144 575.5,-144 575.5,-144 581.5,-144 587.5,-150 587.5,-156 587.5,-156 587.5,-168 587.5,-168 587.5,-174 581.5,-180 575.5,-180"/>
<text text-anchor="middle" x="494.5" y="-165" font-family="sans" font-size="10.00">trim</text>
<text text-anchor="middle" x="494.5" y="-154" font-family="sans" font-size="10.00">sample: WT_mCmL_inputDNA_rep2</text>
</g>
<!-- 24&#45;&gt;3 -->
<g id="edge1" class="edge"><title>24&#45;&gt;3</title>
<path fill="none" stroke="grey" stroke-width="2" d="M487.084,-143.697C483.706,-135.813 479.63,-126.304 475.877,-117.546"/>
<polygon fill="grey" stroke="grey" stroke-width="2" points="478.987,-115.917 471.83,-108.104 472.553,-118.675 478.987,-115.917"/>
</g>
<!-- 24&#45;&gt;18 -->
<g id="edge12" class="edge"><title>24&#45;&gt;18</title>
<path fill="none" stroke="grey" stroke-width="2" d="M499.048,-143.658C505.469,-122.909 519.319,-88.8634 544.5,-72 609.248,-28.639 848.921,-20.736 942.103,-19.3089"/>
<polygon fill="grey" stroke="grey" stroke-width="2" points="942.254,-22.8073 952.205,-19.1711 942.158,-15.8079 942.254,-22.8073"/>
</g>
</g>
</svg>
